<mxfile host="app.diagrams.net" agent="Mozilla/5.0 (Windows NT 10.0; Win64; x64) AppleWebKit/537.36 (KHTML, like Gecko) Chrome/139.0.0.0 Safari/537.36" version="28.2.3">
  <diagram name="Page-1" id="xZKs2tT7i_16syGy_njF">
    <mxGraphModel dx="786" dy="451" grid="1" gridSize="10" guides="1" tooltips="1" connect="1" arrows="1" fold="1" page="1" pageScale="1" pageWidth="827" pageHeight="1169" math="0" shadow="0">
      <root>
        <mxCell id="0" />
        <mxCell id="1" parent="0" />
        <mxCell id="3EgkqA22ugy6xRJ2kCxw-16" value="" style="edgeStyle=orthogonalEdgeStyle;rounded=0;orthogonalLoop=1;jettySize=auto;html=1;" edge="1" parent="1" source="3EgkqA22ugy6xRJ2kCxw-14" target="3EgkqA22ugy6xRJ2kCxw-15">
          <mxGeometry relative="1" as="geometry" />
        </mxCell>
        <mxCell id="3EgkqA22ugy6xRJ2kCxw-14" value="plan" style="ellipse;whiteSpace=wrap;html=1;" vertex="1" parent="1">
          <mxGeometry x="320" y="40" width="110" height="70" as="geometry" />
        </mxCell>
        <mxCell id="3EgkqA22ugy6xRJ2kCxw-18" value="" style="edgeStyle=orthogonalEdgeStyle;rounded=0;orthogonalLoop=1;jettySize=auto;html=1;" edge="1" parent="1" source="3EgkqA22ugy6xRJ2kCxw-15" target="3EgkqA22ugy6xRJ2kCxw-17">
          <mxGeometry relative="1" as="geometry" />
        </mxCell>
        <mxCell id="3EgkqA22ugy6xRJ2kCxw-15" value="develop" style="ellipse;whiteSpace=wrap;html=1;" vertex="1" parent="1">
          <mxGeometry x="320" y="150" width="110" height="70" as="geometry" />
        </mxCell>
        <mxCell id="3EgkqA22ugy6xRJ2kCxw-20" value="" style="edgeStyle=orthogonalEdgeStyle;rounded=0;orthogonalLoop=1;jettySize=auto;html=1;" edge="1" parent="1" source="3EgkqA22ugy6xRJ2kCxw-17" target="3EgkqA22ugy6xRJ2kCxw-19">
          <mxGeometry relative="1" as="geometry" />
        </mxCell>
        <mxCell id="3EgkqA22ugy6xRJ2kCxw-17" value="built" style="ellipse;whiteSpace=wrap;html=1;" vertex="1" parent="1">
          <mxGeometry x="320" y="260" width="110" height="70" as="geometry" />
        </mxCell>
        <mxCell id="3EgkqA22ugy6xRJ2kCxw-22" value="" style="edgeStyle=orthogonalEdgeStyle;rounded=0;orthogonalLoop=1;jettySize=auto;html=1;" edge="1" parent="1" source="3EgkqA22ugy6xRJ2kCxw-19" target="3EgkqA22ugy6xRJ2kCxw-21">
          <mxGeometry relative="1" as="geometry" />
        </mxCell>
        <mxCell id="3EgkqA22ugy6xRJ2kCxw-19" value="test" style="ellipse;whiteSpace=wrap;html=1;" vertex="1" parent="1">
          <mxGeometry x="320" y="370" width="110" height="70" as="geometry" />
        </mxCell>
        <mxCell id="3EgkqA22ugy6xRJ2kCxw-24" value="" style="edgeStyle=orthogonalEdgeStyle;rounded=0;orthogonalLoop=1;jettySize=auto;html=1;" edge="1" parent="1" source="3EgkqA22ugy6xRJ2kCxw-21" target="3EgkqA22ugy6xRJ2kCxw-23">
          <mxGeometry relative="1" as="geometry" />
        </mxCell>
        <mxCell id="3EgkqA22ugy6xRJ2kCxw-21" value="release" style="ellipse;whiteSpace=wrap;html=1;" vertex="1" parent="1">
          <mxGeometry x="320" y="480" width="110" height="70" as="geometry" />
        </mxCell>
        <mxCell id="3EgkqA22ugy6xRJ2kCxw-26" value="" style="edgeStyle=orthogonalEdgeStyle;rounded=0;orthogonalLoop=1;jettySize=auto;html=1;" edge="1" parent="1" source="3EgkqA22ugy6xRJ2kCxw-23" target="3EgkqA22ugy6xRJ2kCxw-25">
          <mxGeometry relative="1" as="geometry" />
        </mxCell>
        <mxCell id="3EgkqA22ugy6xRJ2kCxw-23" value="deploy" style="ellipse;whiteSpace=wrap;html=1;" vertex="1" parent="1">
          <mxGeometry x="320" y="590" width="110" height="70" as="geometry" />
        </mxCell>
        <mxCell id="3EgkqA22ugy6xRJ2kCxw-28" value="" style="edgeStyle=orthogonalEdgeStyle;rounded=0;orthogonalLoop=1;jettySize=auto;html=1;" edge="1" parent="1" source="3EgkqA22ugy6xRJ2kCxw-25" target="3EgkqA22ugy6xRJ2kCxw-27">
          <mxGeometry relative="1" as="geometry" />
        </mxCell>
        <mxCell id="3EgkqA22ugy6xRJ2kCxw-25" value="operate" style="ellipse;whiteSpace=wrap;html=1;" vertex="1" parent="1">
          <mxGeometry x="320" y="700" width="110" height="70" as="geometry" />
        </mxCell>
        <mxCell id="3EgkqA22ugy6xRJ2kCxw-27" value="monitor" style="ellipse;whiteSpace=wrap;html=1;" vertex="1" parent="1">
          <mxGeometry x="320" y="810" width="110" height="70" as="geometry" />
        </mxCell>
      </root>
    </mxGraphModel>
  </diagram>
</mxfile>
